<svg width="56" height="32" viewBox="0 0 56 32" fill="none" xmlns="http://www.w3.org/2000/svg">
<g clip-path="url(#clip0_840_2213)">
<path d="M55.2123 15.0724L55.4678 14.994L55.2254 14.8812C55.0321 14.7912 54.842 14.6999 54.6544 14.6075L54.6094 14.6996C54.2252 14.5101 53.8528 14.3159 53.4911 14.1175L53.5397 14.0275C53.1649 13.8221 52.8015 13.6122 52.4479 13.3987L52.3952 13.4866C52.0289 13.2653 51.6729 13.0402 51.3263 12.812L51.3823 12.7262C51.0271 12.4926 50.6812 12.2558 50.3432 12.0167L50.2843 12.1005C49.9357 11.8541 49.5952 11.6054 49.2612 11.3553L49.3225 11.2731C48.9828 11.0188 48.6497 10.7631 48.3207 10.5069L48.2581 10.5879C47.9229 10.327 47.5922 10.0658 47.2644 9.80529L47.3278 9.72488C47.1888 9.61444 47.0502 9.50404 46.9117 9.3938C46.7204 9.24147 46.5295 9.08951 46.3386 8.93837L46.2752 9.01887C45.9441 8.75626 45.6134 8.49571 45.2807 8.23839L45.3433 8.15716C45.0093 7.89891 44.6733 7.64377 44.3332 7.39302L44.2727 7.47569C43.9347 7.22637 43.5925 6.98153 43.2439 6.74235L43.3015 6.65768C42.9549 6.41977 42.6021 6.18736 42.2408 5.96159L42.1868 6.04869C41.8332 5.82789 41.4719 5.61357 41.1003 5.40689L41.1498 5.31716C40.7846 5.114 40.4096 4.91811 40.0229 4.73054L39.9784 4.82285C39.6065 4.64246 39.2238 4.46982 38.8285 4.30588L38.8676 4.21107C38.4846 4.05222 38.0899 3.90148 37.6818 3.75972L37.6484 3.85663C37.2586 3.72119 36.8566 3.59397 36.441 3.47572L36.4689 3.37704C36.0732 3.26444 35.6653 3.15995 35.244 3.06419L35.2214 3.16422C34.8219 3.07342 34.4103 2.99049 33.9855 2.916L34.0031 2.81496C33.5978 2.7439 33.1808 2.68049 32.751 2.6252L32.738 2.72693C32.3315 2.67462 31.9134 2.6296 31.4832 2.59226L31.492 2.49007C31.0822 2.45451 30.6615 2.42591 30.2291 2.40459L30.2242 2.50703C29.8145 2.48684 29.3943 2.47321 28.9631 2.46644L28.9647 2.36388C28.7534 2.36056 28.5395 2.35889 28.3229 2.35889C28.12 2.35889 27.9191 2.36038 27.7199 2.36333L27.7214 2.46589C27.3183 2.47187 26.9226 2.48385 26.5341 2.50161L26.5295 2.39915C26.1256 2.41761 25.7294 2.44228 25.3406 2.4729L25.3486 2.57515C24.9465 2.60682 24.5524 2.64487 24.166 2.68898L24.1544 2.58708C23.7523 2.63298 23.3584 2.68545 22.9724 2.74414L22.9877 2.84555C22.5887 2.9062 22.1982 2.97351 21.8158 3.04711L21.7965 2.94639C21.399 3.02289 21.01 3.10616 20.6292 3.19579L20.6526 3.29565C20.2601 3.38804 19.8763 3.48719 19.5008 3.59265L19.4732 3.49388C19.084 3.60319 18.7035 3.71924 18.3313 3.84153L18.3631 3.93901C17.981 4.06455 17.6075 4.19667 17.2422 4.33485L17.2062 4.23889C16.8291 4.38145 16.4607 4.53041 16.1002 4.6852L16.1404 4.77952C15.7715 4.93784 15.411 5.10231 15.058 5.27216L15.0138 5.17969C14.6508 5.35437 14.2958 5.53476 13.948 5.72016L13.9959 5.81074C13.6425 5.99913 13.2965 6.19273 12.9571 6.39076L12.9058 6.30207C12.5594 6.50416 12.22 6.71085 11.8866 6.92131L11.9411 7.00812C11.6028 7.22162 11.2708 7.43905 10.944 7.65965L10.887 7.57452C10.5552 7.79848 10.2289 8.02555 9.90711 8.25493L9.9663 8.33858C9.64158 8.57 9.3214 8.80385 9.00477 9.03917L8.94399 8.95675C8.62332 9.19507 8.30633 9.43487 7.99207 9.67515L8.054 9.75675C7.7375 9.99876 7.42361 10.2414 7.11136 10.4837L7.04886 10.4025C6.89124 10.5248 6.73187 10.6487 6.57282 10.7723C6.41716 10.8933 6.26179 11.0141 6.10867 11.1329L6.17117 11.2141C5.85667 11.4581 5.54275 11.7008 5.22825 11.9412L5.16632 11.8596C4.85072 12.1008 4.53466 12.3396 4.21702 12.575L4.27772 12.6575C3.95847 12.8941 3.63754 13.1274 3.31382 13.3563L3.25497 13.2724C2.93165 13.5011 2.60567 13.7252 2.27587 13.9439L2.3322 14.0295C2.00202 14.2484 1.66793 14.462 1.32882 14.6692L1.27569 14.5816C1.10714 14.6845 0.937376 14.7859 0.766249 14.8856L0.561829 15.0046L0.788261 15.0725C0.97575 15.1288 1.16172 15.1899 1.34637 15.2556L1.38053 15.159C1.75098 15.2908 2.11592 15.441 2.47683 15.6072L2.43421 15.7004C2.78772 15.8632 3.13758 16.0417 3.48523 16.2338L3.53451 16.1439C3.87623 16.3328 4.21559 16.5345 4.55388 16.7472L4.49963 16.8342C4.82914 17.0414 5.15786 17.2592 5.48703 17.4858L5.54483 17.4012C5.86612 17.6224 6.18765 17.8518 6.51057 18.0877L6.45044 18.1706C6.76547 18.4008 7.08201 18.6372 7.40109 18.8785L7.46257 18.7966C7.77441 19.0324 8.08858 19.2726 8.40598 19.5158L8.34401 19.5973C8.40602 19.6448 8.4682 19.6924 8.53049 19.7402C8.77992 19.9314 9.03163 20.1242 9.28596 20.3181L9.34776 20.2364C9.6594 20.4739 9.97496 20.7128 10.2953 20.9518L10.2344 21.0341C10.5486 21.2685 10.8676 21.5031 11.192 21.7366L11.2516 21.6532C11.5694 21.8819 11.8924 22.1095 12.2215 22.3349L12.1639 22.4196C12.4879 22.6416 12.8178 22.8613 13.1544 23.0779L13.2096 22.9915C13.5392 23.2036 13.8752 23.4126 14.2182 23.6174L14.166 23.7056C14.5029 23.9067 14.8466 24.1039 15.1978 24.2961L15.2467 24.206C15.5896 24.3936 15.9395 24.5765 16.2972 24.7536L16.252 24.8456C16.6033 25.0196 16.9621 25.1882 17.329 25.3504L17.3702 25.2566C17.7272 25.4145 18.0919 25.5663 18.4647 25.7114L18.4278 25.807C18.7928 25.949 19.1655 26.0845 19.5466 26.2128L19.5791 26.1155C19.9484 26.2398 20.3256 26.3572 20.7111 26.4672L20.6832 26.5658C21.0591 26.673 21.4428 26.7731 21.8348 26.8654L21.8581 26.7655C22.2367 26.8547 22.6229 26.9365 23.0173 27.0106L22.9986 27.1114C23.3818 27.1833 23.7727 27.2479 24.1716 27.3046L24.1859 27.2031C24.5701 27.2577 24.9618 27.3049 25.3612 27.3444L25.3512 27.4464C25.7385 27.4847 26.1331 27.5156 26.5352 27.5388L26.541 27.4364C26.9281 27.4588 27.3222 27.4739 27.7237 27.4815L27.7218 27.584C27.9203 27.5878 28.1207 27.5897 28.3229 27.5897C28.5394 27.5897 28.7532 27.5876 28.9643 27.5837L28.9624 27.4812C29.3931 27.4731 29.8127 27.457 30.2215 27.4331L30.2274 27.5355C30.6592 27.5103 31.0792 27.4765 31.488 27.4345L31.4776 27.3325C31.9066 27.2885 32.3231 27.2356 32.728 27.1743L32.7432 27.2757C33.1711 27.2109 33.586 27.1368 33.989 27.054L33.9685 26.9536C34.39 26.8669 34.7982 26.7708 35.1943 26.6659L35.2203 26.7651C35.6371 26.6547 36.0406 26.5346 36.4317 26.4057L36.3999 26.3083C36.8088 26.1735 37.2042 26.0292 37.5876 25.8762L37.6254 25.9715C38.0254 25.8118 38.4124 25.6428 38.7878 25.4656L38.7443 25.3728C39.13 25.1907 39.5034 24.9999 39.8663 24.8016L39.9152 24.8917C40.2914 24.6862 40.6562 24.4728 41.0116 24.2529L40.9581 24.1656C41.319 23.9421 41.6706 23.7118 42.0139 23.4762L42.0715 23.5609C42.4227 23.3203 42.7652 23.0743 43.1016 22.8243L43.0411 22.7419C43.3804 22.4898 43.7139 22.2337 44.0434 21.975L44.1064 22.0558C44.4391 21.7948 44.7677 21.5313 45.0943 21.2671L45.0301 21.1872C45.2484 21.0105 45.4663 20.8334 45.6838 20.6563C45.7925 20.5679 45.9012 20.4795 46.0099 20.3911L46.0741 20.4708C46.4007 20.2057 46.7273 19.9415 47.0568 19.6797L46.993 19.5993C47.3216 19.338 47.6532 19.0791 47.9896 18.824L48.0513 18.9059C48.3844 18.6535 48.7221 18.4052 49.0666 18.1625L49.0078 18.0785C49.3495 17.8379 49.6978 17.6025 50.0554 17.3741L50.1102 17.4606C50.4593 17.2374 50.8174 17.0208 51.1857 16.8123L51.1354 16.7229C51.4963 16.5186 51.8675 16.3218 52.2505 16.1341L52.2954 16.2263C52.6654 16.045 53.0467 15.8721 53.4408 15.7089L53.4019 15.6141C53.7817 15.4567 54.1737 15.3083 54.5788 15.1698L54.6119 15.2669C54.8089 15.1997 55.0088 15.1348 55.2123 15.0724Z" stroke="#011C12" stroke-width="0.5" stroke-dasharray="3 3"/>
<path d="M28.8175 24C33.7841 24 37.8102 19.9591 37.8102 14.9744C37.8102 9.98965 33.7841 5.94873 28.8175 5.94873C23.851 5.94873 19.8248 9.98965 19.8248 14.9744C19.8248 19.9591 23.851 24 28.8175 24Z" stroke="#011C12"/>
<path d="M28.8175 23.5897C33.5583 23.5897 37.4015 19.7324 37.4015 14.9743C37.4015 10.2161 33.5583 6.35889 28.8175 6.35889C24.0767 6.35889 20.2336 10.2161 20.2336 14.9743C20.2336 19.7324 24.0767 23.5897 28.8175 23.5897Z" stroke="#011C12" stroke-dasharray="2 2"/>
<path d="M28.8175 21.128C32.2038 21.128 34.9489 18.3728 34.9489 14.9742C34.9489 11.5755 32.2038 8.82031 28.8175 8.82031C25.4312 8.82031 22.6861 11.5755 22.6861 14.9742C22.6861 18.3728 25.4312 21.128 28.8175 21.128Z" stroke="#011C12"/>
<path d="M20.7653 19.4096V28.3076C20.7653 30.1202 19.3013 31.5896 17.4953 31.5896H6.94891C5.14289 31.5896 3.67883 30.1202 3.67883 28.3076V3.69221C3.67883 1.87958 5.14289 0.410156 6.94891 0.410156H43.3285C45.1344 0.410156 46.5985 1.87958 46.5985 3.6922V20.5348C46.5985 22.3474 45.1344 23.8168 43.3285 23.8168H28.6131" stroke="#011C12" stroke-width="0.5"/>
</g>
<defs>
<clipPath id="clip0_840_2213">
<rect width="56" height="32" fill="white"/>
</clipPath>
</defs>
</svg>
