<svg width="137" height="78" viewBox="0 0 137 78" fill="none" xmlns="http://www.w3.org/2000/svg">
<path d="M135.073 36.7391L135.698 36.5482L135.105 36.2732C134.632 36.0538 134.167 35.8313 133.708 35.6061L133.598 35.8305C132.658 35.3687 131.747 34.8952 130.862 34.4117L130.981 34.1923C130.064 33.6915 129.175 33.1799 128.31 32.6595L128.181 32.8737C127.285 32.3344 126.414 31.7856 125.566 31.2294L125.703 31.0203C124.834 30.4509 123.988 29.8737 123.161 29.2908L123.017 29.4952C122.164 28.8946 121.331 28.2883 120.514 27.6787L120.664 27.4783C119.833 26.8585 119.018 26.2352 118.213 25.6108L118.06 25.8083C117.24 25.1723 116.431 24.5355 115.629 23.9006L115.784 23.7046C115.444 23.4354 115.105 23.1663 114.766 22.8976C114.298 22.5263 113.831 22.1559 113.364 21.7875L113.209 21.9837C112.399 21.3436 111.59 20.7085 110.776 20.0813L110.929 19.8833C110.112 19.2538 109.29 18.6319 108.458 18.0207L108.31 18.2222C107.483 17.6145 106.646 17.0177 105.793 16.4347L105.934 16.2283C105.086 15.6484 104.223 15.0819 103.339 14.5316L103.207 14.7439C102.342 14.2057 101.458 13.6833 100.549 13.1795L100.67 12.9608C99.7765 12.4656 98.8591 11.9881 97.9131 11.5309L97.8043 11.7559C96.8945 11.3162 95.9582 10.8954 94.9912 10.4958L95.0867 10.2647C94.1497 9.8775 93.1841 9.51007 92.1859 9.16452L92.1041 9.40076C91.1505 9.07062 90.167 8.76052 89.1503 8.47228L89.2185 8.23176C88.2504 7.95728 87.2525 7.70258 86.2218 7.46918L86.1666 7.713C85.1892 7.49167 84.1822 7.28954 83.143 7.10796L83.1861 6.86169C82.1947 6.68847 81.1744 6.53391 80.123 6.39913L80.0912 6.6471C79.0966 6.5196 78.0739 6.40986 77.0213 6.31884L77.0429 6.06977C76.0404 5.98309 75.0111 5.91336 73.9534 5.86141L73.9412 6.11111C72.939 6.06188 71.9111 6.02866 70.8561 6.01215L70.86 5.76218C70.3431 5.75409 69.8198 5.75 69.2898 5.75C68.7936 5.75 68.302 5.75364 67.8148 5.76084L67.8185 6.01081C66.8322 6.02539 65.8642 6.05461 64.9138 6.09789L64.9024 5.84815C63.9143 5.89314 62.9451 5.95328 61.994 6.02791L62.0136 6.27715C61.0299 6.35434 60.0657 6.44708 59.1203 6.55461L59.0921 6.30622C58.1083 6.41811 57.1447 6.546 56.2003 6.68905L56.2377 6.93623C55.2617 7.08407 54.3063 7.24815 53.3707 7.42755L53.3236 7.18202C52.351 7.3685 51.3994 7.57149 50.4679 7.78996L50.525 8.03336C49.5648 8.25855 48.6259 8.50025 47.7072 8.75731L47.6398 8.51655C46.6876 8.78298 45.7568 9.06586 44.8461 9.36395L44.9239 9.60154C43.9891 9.90755 43.0755 10.2296 42.1817 10.5664L42.0936 10.3325C41.1713 10.68 40.2699 11.0431 39.388 11.4204L39.4863 11.6503C38.5839 12.0362 37.7018 12.437 36.8382 12.8511L36.7301 12.6257C35.842 13.0515 34.9735 13.4912 34.1227 13.9431L34.2399 14.1639C33.3753 14.6231 32.5289 15.095 31.6986 15.5777L31.573 15.3615C30.7257 15.8541 29.8954 16.3579 29.0798 16.8709L29.2129 17.0825C28.3855 17.6029 27.5732 18.1329 26.7738 18.6706L26.6343 18.4631C25.8226 19.009 25.0243 19.5625 24.2371 20.1216L24.3818 20.3255C23.5874 20.8896 22.8042 21.4596 22.0295 22.0332L21.8808 21.8323C21.0963 22.4132 20.3208 22.9977 19.552 23.5834L19.7035 23.7823C18.9292 24.3722 18.1613 24.9636 17.3974 25.5542L17.2445 25.3564C16.8591 25.6543 16.4694 25.9561 16.0804 26.2574C15.6994 26.5525 15.3191 26.847 14.9444 27.1367L15.0973 27.3345C14.3279 27.9293 13.5599 28.5208 12.7905 29.1067L12.639 28.9079C11.8669 29.4959 11.0937 30.078 10.3166 30.6518L10.4651 30.8529C9.68409 31.4297 8.89895 31.9983 8.10699 32.5562L7.96301 32.3518C7.17205 32.909 6.37455 33.4554 5.56772 33.9885L5.70553 34.1971C4.89777 34.7307 4.08045 35.2513 3.25085 35.7563L3.12086 35.5428C2.70852 35.7938 2.29319 36.0409 1.87454 36.2838L1.37444 36.5739L1.92839 36.7395C2.38707 36.8766 2.84204 37.0256 3.29377 37.1858L3.37733 36.9502C4.28362 37.2716 5.17641 37.6376 6.05936 38.0427L5.95509 38.27C6.81992 38.6668 7.67582 39.1018 8.52632 39.57L8.64689 39.351C9.48289 39.8113 10.3131 40.3031 11.1407 40.8216L11.008 41.0335C11.8141 41.5386 12.6183 42.0695 13.4236 42.6219L13.565 42.4157C14.351 42.9548 15.1376 43.5139 15.9276 44.0889L15.7805 44.291C16.5512 44.8521 17.3256 45.4285 18.1062 46.0166L18.2566 45.8169C19.0195 46.3916 19.7881 46.9771 20.5646 47.5699L20.413 47.7686C20.5649 47.8846 20.7172 48.0009 20.8699 48.1174C21.4799 48.5832 22.0955 49.0532 22.7174 49.5255L22.8686 49.3264C23.631 49.9053 24.403 50.4876 25.1868 51.0702L25.0377 51.2709C25.8064 51.8422 26.5867 52.414 27.3805 52.9832L27.5262 52.78C28.3036 53.3374 29.0939 53.8922 29.899 54.4416L29.7581 54.6481C30.5508 55.189 31.3579 55.7247 32.1813 56.2526L32.3162 56.0421C33.1227 56.5591 33.9446 57.0685 34.7838 57.5677L34.656 57.7825C35.4802 58.2728 36.3211 58.7534 37.1803 59.2219L37.3 59.0024C38.1387 59.4597 38.9949 59.9054 39.8699 60.3372L39.7593 60.5614C40.6189 60.9855 41.4966 61.3964 42.3941 61.7919L42.4949 61.5631C43.3684 61.948 44.2605 62.3182 45.1726 62.6717L45.0822 62.9048C45.9751 63.2509 46.8871 63.5812 47.8194 63.8938L47.8988 63.6568C48.8024 63.9597 49.7252 64.246 50.6682 64.514L50.5999 64.7545C51.5195 65.0157 52.4582 65.2596 53.4172 65.4846L53.4743 65.2412C54.4004 65.4585 55.3454 65.658 56.3103 65.8385L56.2643 66.0842C57.2019 66.2596 58.1582 66.417 59.134 66.5552L59.1691 66.3077C60.109 66.4408 61.0672 66.556 62.0444 66.6521L62.0199 66.9009C62.9674 66.9942 63.9327 67.0696 64.9164 67.1261L64.9307 66.8765C65.8777 66.931 66.8419 66.9679 67.824 66.9863L67.8193 67.2363C68.3051 67.2454 68.7952 67.25 69.2898 67.25C69.8196 67.25 70.3426 67.2451 70.8591 67.2355L70.8544 66.9856C71.9082 66.966 72.9345 66.9266 73.9346 66.8684L73.9491 67.118C75.0055 67.0565 76.033 66.9741 77.0331 66.8719L77.0077 66.6232C78.0571 66.516 79.0761 66.387 80.0666 66.2376L80.1039 66.4848C81.1506 66.3269 82.1658 66.1462 83.1516 65.9444L83.1015 65.6995C84.1327 65.4884 85.1314 65.2541 86.1002 64.9984L86.164 65.2401C87.1837 64.971 88.1706 64.6783 89.1276 64.3641L89.0496 64.1266C90.05 63.7982 91.0174 63.4463 91.9553 63.0734L92.0477 63.3057C93.0264 62.9165 93.9731 62.5045 94.8915 62.0725L94.7851 61.8463C95.7286 61.4025 96.6423 60.9374 97.5301 60.4542L97.6496 60.6738C98.57 60.1729 99.4625 59.6527 100.332 59.1166L100.201 58.9038C101.084 58.3592 101.944 57.7978 102.784 57.2234L102.925 57.4298C103.784 56.8435 104.622 56.2438 105.445 55.6345L105.297 55.4335C106.127 54.8192 106.943 54.1948 107.749 53.5643L107.903 53.7612C108.717 53.125 109.521 52.4828 110.32 51.8387L110.163 51.644C110.697 51.2133 111.23 50.7816 111.762 50.35C112.028 50.1344 112.294 49.9189 112.56 49.7035L112.717 49.8979C113.516 49.2516 114.315 48.6076 115.121 47.9694L114.965 47.7734C115.769 47.1366 116.58 46.5054 117.403 45.8838L117.554 46.0833C118.369 45.4682 119.195 44.8629 120.038 44.2712L119.894 44.0665C120.73 43.48 121.582 42.9064 122.457 42.3495L122.591 42.5604C123.445 42.0163 124.321 41.4883 125.222 40.9801L125.099 40.7623C125.982 40.2642 126.89 39.7846 127.827 39.3271L127.937 39.5517C128.842 39.1098 129.775 38.6884 130.739 38.2906L130.644 38.0595C131.573 37.6759 132.532 37.3141 133.523 36.9767L133.604 37.2134C134.086 37.0494 134.575 36.8912 135.073 36.7391Z" stroke="black" stroke-width="0.5" stroke-dasharray="3 3"/>
<circle cx="70.5" cy="36.5" r="22" stroke="black"/>
<circle cx="70.5" cy="36.5" r="21" stroke="black" stroke-dasharray="2 2"/>
<circle cx="70.5" cy="36.5" r="15" stroke="black"/>
<path d="M50.8009 47.3112V69C50.8009 73.4183 47.2192 77 42.8009 77H17C12.5817 77 9 73.4183 9 69V9C9 4.58172 12.5817 1 17 1H106C110.418 1 114 4.58172 114 8.99999V50.0537C114 54.472 110.418 58.0537 106 58.0537H70" stroke="black" stroke-width="0.5"/>
</svg>
